<?xml version="1.0" encoding="UTF-8" standalone="no"?>
<!-- Created with Inkscape (http://www.inkscape.org/) -->

<svg
   width="210mm"
   height="297mm"
   viewBox="0 0 210 297"
   version="1.1"
   id="svg5"
   inkscape:version="1.1.2 (0a00cf5339, 2022-02-04)"
   sodipodi:docname="cat lamp1.svg"
   xmlns:inkscape="http://www.inkscape.org/namespaces/inkscape"
   xmlns:sodipodi="http://sodipodi.sourceforge.net/DTD/sodipodi-0.dtd"
   xmlns="http://www.w3.org/2000/svg"
   xmlns:svg="http://www.w3.org/2000/svg">
  <sodipodi:namedview
     id="namedview7"
     pagecolor="#ffffff"
     bordercolor="#666666"
     borderopacity="1.0"
     inkscape:pageshadow="2"
     inkscape:pageopacity="0.0"
     inkscape:pagecheckerboard="0"
     inkscape:document-units="mm"
     showgrid="false"
     inkscape:zoom="0.5499273"
     inkscape:cx="419.14631"
     inkscape:cy="647.3583"
     inkscape:window-width="1920"
     inkscape:window-height="1131"
     inkscape:window-x="0"
     inkscape:window-y="0"
     inkscape:window-maximized="1"
     inkscape:current-layer="layer1" />
  <defs
     id="defs2" />
  <g
     inkscape:label="Layer 1"
     inkscape:groupmode="layer"
     id="layer1">
    <path
       style="fill:#090909;stroke:none;stroke-width:0.264583"
       d="m 15.251546,28.045834 c -1.12284,2.6969 -2.85549,5.38533 -0.66993,8.11609 1.16893,1.4605 3.72851,2.22515 4.08067,4.24366 0.44159,2.53127 -4.37779,-0.0759 -3.55653,3.24987 0.61278,2.48127 3.73301,2.04656 5.06863,0.50139 0.45349,-0.52467 0.73422,-1.1602 0.91704,-1.82351 0.49028,-1.77879 0.15373,-3.63987 -1.12739,-5.00248 -1.9722,-2.09761 -4.76699,-2.58498 -4.04706,-6.11002 0.18732,-0.9181 0.40269,-2.34315 1.07129,-3.03927 3.56285,-1.77771 6.83401,-3.10748 8.84661,-6.48573 -2.31662,2.55433 -5.08942,3.53387 -8.20208,4.7625 2.30022,-1.82719 1.31104,-4.33869 0.77317,-7.02192 -0.33147,-1.65357 1.14734,-4.72995 -1.37709,-4.80411 l -0.13932,-1.44277 c 2.76307,-0.28495 5.01417,-1.52759 5.77031,-4.1937001 -0.68297,-0.55138 -0.94753,-0.88214 -2.02624,-1.00485 0.0697,-1.14874 0.21725,-2.92058 -0.88417,-4.02223 -1.37694,0.0578 -3.13478,2.32984 -3.13478,2.32984 l -2.24203,-0.0114 c 0,0 -2.04722,-2.34077 -3.48865,-2.10624 -0.73885,0.91029 -0.38299,3.37086 -0.24144,3.89091 -0.60087,0.30434 -1.29061,0.62202 -1.88684,1.6455799 0.49107,2.2120102 3.3926,3.2036102 5.8355,3.5271202 l 0.0736,1.45404 c -2.65854,0.0635 -0.94997,3.11573 -1.30151,4.76794 -0.71625,3.36636 -1.48541,5.64018 0.82987,7.25638 -3.42615,-1.16205 -6.451551,-2.02274 -8.818831,-5.02708 C 0.44428399,15.438764 2.227629,5.8674139 9.430676,2.1126039 c 3.33467,-1.73830997 6.22538,-1.51455997 9.78958,-1.05426 C 17.753666,0.13680391 15.889156,0.00207391 14.193176,1.391409e-5 9.6887163,-0.00598609 4.953102,1.9284839 2.43186,5.8208439 -1.924187,12.545894 -0.40145701,22.122274 6.784838,26.261234 c 2.714418,1.56315 5.413318,1.78461 8.466668,1.78461 z"
       id="path1820"
       sodipodi:nodetypes="csscsssccccsccccccccccccsccscccccc" />
  </g>
</svg>
